{"asset":{"version":"2.0","generator":"babylon.js glTF exporter for 3ds max 2018 v1.3.33"},"scene":0,"scenes":[{"nodes":[0,1],"extensions":{}}],"nodes":[{"mesh":0,"translation":[0.0,0.0,0.0],"rotation":[0.0,0.0,0.0,1.0],"scale":[1.0,1.0,1.0],"name":"ModeloEx"},{"translation":[0.0,0.0,0.0],"rotation":[0.0,0.0,0.0,1.0],"scale":[1.0,1.0,1.0],"name":"Default light"}],"meshes":[{"primitives":[{"attributes":{"POSITION":1,"NORMAL":2,"COLOR_0":3,"TEXCOORD_0":4},"indices":0,"mode":4,"material":0}],"name":"ModeloEx"}],"accessors":[{"bufferView":0,"componentType":5125,"count":190818,"type":"SCALAR","name":"accessorIndices"},{"bufferView":1,"componentType":5126,"count":190818,"max":[0.3135566,1.93033624,0.226163119],"min":[-0.313569278,0.8118687,-0.159963772],"type":"VEC3","name":"accessorPositions"},{"bufferView":1,"byteOffset":2289816,"componentType":5126,"count":190818,"type":"VEC3","name":"accessorNormals"},{"bufferView":2,"componentType":5126,"count":190818,"type":"VEC4","name":"accessorColors"},{"bufferView":3,"componentType":5126,"count":190818,"type":"VEC2","name":"accessorUVs"}],"bufferViews":[{"buffer":0,"byteLength":763272,"name":"bufferViewScalar"},{"buffer":0,"byteOffset":763272,"byteLength":4579632,"byteStride":12,"name":"bufferViewFloatVec3"},{"buffer":0,"byteOffset":5342904,"byteLength":3053088,"byteStride":16,"name":"bufferViewFloatVec4"},{"buffer":0,"byteOffset":8395992,"byteLength":1526544,"byteStride":8,"name":"bufferViewFloatVec2"}],"buffers":[{"uri":"ModeloEx_.bin","byteLength":9922536}],"materials":[{"pbrMetallicRoughness":{"baseColorFactor":[0.366666675,0.366666675,0.366666675,1.0],"metallicFactor":0.0,"roughnessFactor":0.450053632},"emissiveFactor":[0.07333333,0.07333333,0.07333333],"alphaMode":"OPAQUE","name":"01 - Default"}]}